<?xml version="1.0" standalone="no"?>
<!DOCTYPE svg PUBLIC "-//W3C//DTD SVG 20010904//EN"
 "http://www.w3.org/TR/2001/REC-SVG-20010904/DTD/svg10.dtd">
<svg version="1.0" xmlns="http://www.w3.org/2000/svg"
 width="510.000000pt" height="510.000000pt" viewBox="0 0 510.000000 510.000000"
 preserveAspectRatio="xMidYMid meet">
<metadata>
Created by potrace 1.14, written by Peter Selinger 2001-2017
</metadata>
<g transform="translate(0.000000,510.000000) scale(0.100000,-0.100000)"
fill="#000000" stroke="none">
<path d="M2772 4402 c-384 -88 -546 -129 -532 -134 12 -4 20 -15 18 -23 -2 -8
-78 -100 -170 -204 -189 -212 -201 -221 -340 -241 -90 -12 -108 -10 -108 16 0
14 253 307 312 362 14 13 47 32 74 43 42 17 44 19 14 13 -19 -3 -45 -11 -58
-18 -13 -6 -349 -364 -748 -794 -545 -590 -724 -790 -724 -808 0 -30 12 -43
291 -302 217 -201 229 -211 306 -240 79 -31 80 -31 139 -16 32 9 64 19 70 22
7 4 -27 42 -85 95 -207 189 -336 316 -328 323 11 11 171 -32 230 -63 31 -15
106 -79 194 -165 108 -105 147 -138 156 -129 8 8 -22 43 -118 135 -72 68 -127
126 -124 130 3 3 64 -10 135 -29 126 -35 180 -61 236 -113 l27 -25 43 35 c24
20 66 57 93 83 l50 47 -48 -37 c-50 -38 -72 -41 -110 -12 -18 12 -18 16 -4 48
9 19 125 165 259 324 290 346 268 333 375 222 40 -40 75 -86 79 -101 7 -30 -6
-48 -156 -216 l-75 -85 55 45 c179 146 472 494 563 667 37 71 81 183 74 190
-2 2 -20 -23 -40 -54 -36 -59 -230 -332 -279 -394 l-27 -34 -42 40 c-23 22
-59 62 -80 88 -68 85 -71 78 182 382 188 226 224 265 247 265 15 0 32 -4 37
-8 6 -4 55 -61 110 -127 54 -66 105 -128 113 -137 19 -22 4 -69 -45 -140 l-36
-52 49 28 c149 86 390 303 525 473 77 97 171 252 165 270 -9 23 -309 448 -328
466 -11 9 -30 17 -42 16 -11 -1 -270 -58 -574 -127z m463 68 c3 -5 -85 -117
-195 -249 -157 -187 -210 -244 -243 -260 -44 -21 -338 -67 -364 -57 -8 3 -13
13 -11 21 6 30 362 436 403 461 25 14 103 37 195 58 166 37 205 41 215 26z
m275 -206 c62 -86 117 -168 123 -184 9 -25 6 -36 -32 -100 -85 -143 -319 -432
-361 -445 -11 -3 -29 -4 -39 0 -11 3 -75 77 -143 163 -166 212 -168 185 26
418 246 296 254 304 286 304 24 0 41 -19 140 -156z m-810 84 c0 -7 -80 -107
-178 -223 -139 -165 -187 -215 -222 -232 -45 -22 -272 -59 -291 -47 -5 3 -9
12 -9 21 0 14 287 345 334 386 41 35 98 58 199 82 117 27 167 31 167 13z m-25
-544 c0 -32 -425 -536 -470 -557 -29 -14 -65 -17 -183 -17 -81 0 -153 4 -160
9 -8 4 -12 17 -10 29 5 33 393 476 441 502 30 17 77 28 172 41 169 23 210 21
210 -7z m-500 -44 c10 -15 -3 -32 -205 -265 -121 -141 -195 -218 -223 -233
-37 -20 -52 -22 -157 -20 -153 4 -153 6 -14 163 218 245 278 308 314 323 33
14 179 38 247 41 17 0 35 -4 38 -9z m-410 -62 c0 -23 -338 -397 -384 -425 -30
-19 -50 -23 -128 -23 -86 0 -93 1 -93 20 0 22 287 345 347 392 33 25 89 42
173 51 62 7 85 3 85 -15z m-527 -560 c7 -7 12 -18 12 -26 0 -20 -385 -449
-420 -467 -16 -8 -44 -15 -62 -15 -44 0 -147 25 -160 38 -14 14 373 440 422
464 42 21 189 25 208 6z m360 -17 c8 -5 12 -16 10 -24 -3 -16 -370 -447 -426
-500 -39 -38 -92 -44 -184 -22 -79 19 -98 29 -98 52 0 21 389 457 430 482 30
17 51 21 145 21 61 0 116 -4 123 -9z m442 -10 c54 -15 39 -38 -208 -332 -131
-156 -245 -289 -253 -295 -37 -31 -82 -32 -203 -4 -114 26 -146 42 -146 74 0
21 439 521 477 543 35 21 50 23 173 22 74 -1 146 -4 160 -8z m-1312 -565 c39
-13 87 -36 107 -49 59 -40 440 -390 428 -394 -14 -5 -159 52 -215 85 -48 27
-418 359 -418 374 0 13 23 9 98 -16z"/>
<path d="M2178 4263 c6 -2 18 -2 25 0 6 3 1 5 -13 5 -14 0 -19 -2 -12 -5z"/>
<path d="M2138 4253 c7 -3 16 -2 19 1 4 3 -2 6 -13 5 -11 0 -14 -3 -6 -6z"/>
<path d="M2088 4243 c6 -2 18 -2 25 0 6 3 1 5 -13 5 -14 0 -19 -2 -12 -5z"/>
<path d="M3755 3961 c-3 -11 -1 -38 6 -60 8 -28 9 -48 1 -69 -9 -25 -287 -395
-346 -460 -25 -28 -58 -25 -114 13 -20 14 -43 25 -51 25 -7 0 -41 -17 -75 -37
-54 -34 -58 -38 -36 -41 52 -7 99 -83 100 -158 0 -38 -13 -58 -196 -293 -178
-228 -199 -251 -226 -251 -16 0 -37 4 -47 10 -15 7 -26 -1 -64 -44 l-46 -53
30 -29 c16 -15 29 -33 29 -38 0 -6 -90 -128 -200 -271 -110 -143 -221 -288
-247 -322 -27 -34 -51 -61 -55 -60 -4 1 -52 44 -107 95 l-100 93 -42 -27 -42
-26 79 -79 c43 -43 75 -81 72 -84 -3 -3 -67 17 -141 45 l-136 51 -60 -30 c-90
-46 -248 -107 -377 -146 -63 -19 -117 -35 -118 -35 -2 0 -6 -39 -10 -86 -6
-68 -4 -90 8 -109 17 -26 1048 -905 1084 -924 21 -11 122 32 1095 474 590 268
1075 493 1079 499 4 6 8 24 8 40 0 15 -82 353 -182 750 l-181 721 -205 284
c-112 157 -206 290 -209 298 -3 7 22 50 56 95 73 98 76 119 24 192 -51 71 -50
70 -58 47z m-43 -394 c17 -36 48 -195 48 -249 0 -16 -4 -28 -10 -28 -5 0 -38
41 -75 92 -78 110 -85 149 -35 200 36 36 50 33 72 -15z m-126 -125 c25 -16
171 -221 191 -268 12 -27 31 -101 42 -164 22 -122 26 -160 14 -160 -8 0 -271
343 -325 423 -32 46 -36 91 -12 127 31 46 62 61 90 42z m364 -197 c61 -85 120
-174 130 -198 23 -52 72 -244 68 -265 -4 -18 -247 304 -289 383 -26 47 -69
218 -69 267 1 23 1 23 24 -4 14 -15 74 -97 136 -183z m-286 -255 c96 -120 186
-241 200 -268 30 -59 103 -419 88 -434 -13 -13 -378 440 -408 507 -15 33 -30
102 -44 205 -11 85 -23 170 -27 189 -4 23 -2 32 5 27 6 -4 90 -105 186 -226z
m359 -112 c79 -102 151 -205 160 -227 17 -41 87 -310 87 -332 0 -8 -4 -8 -15
1 -28 23 -292 375 -314 418 -18 36 -81 286 -81 323 0 24 26 -5 163 -183z
m-505 -201 c66 -71 372 -472 372 -488 0 -10 -10 -29 -22 -43 -25 -27 -555
-304 -600 -313 -15 -3 -39 -3 -52 1 -16 4 -104 91 -231 229 -218 236 -228 253
-182 294 28 26 596 349 622 355 35 7 62 -3 93 -35z m610 -268 c79 -101 154
-205 167 -231 21 -39 135 -428 135 -458 0 -34 -48 15 -203 209 -97 120 -185
237 -196 260 -24 46 -77 341 -72 399 2 29 32 -2 169 -179z m-1455 -185 c16 -6
359 -370 396 -420 42 -58 32 -66 -262 -217 -146 -75 -275 -137 -288 -138 -65
-6 -72 -2 -257 173 l-73 69 43 59 c24 33 46 60 49 60 4 0 62 -58 129 -130
l122 -129 41 20 c23 12 44 23 46 26 3 2 -26 35 -64 73 -38 38 -67 71 -64 74 2
2 82 -4 178 -14 l174 -19 58 30 c33 16 59 31 59 33 0 2 -88 11 -195 21 -107
10 -200 22 -206 26 -9 5 -3 44 20 145 17 75 29 139 27 141 -2 2 -28 -9 -58
-26 l-54 -31 -23 -122 c-13 -68 -25 -125 -28 -127 -5 -6 -93 81 -93 91 0 10
236 308 258 326 17 13 41 15 65 6z m1354 -179 c11 -8 91 -104 177 -214 121
-155 156 -206 156 -229 0 -16 -6 -34 -12 -40 -26 -20 -578 -272 -598 -272 -12
0 -33 6 -48 14 -25 13 -344 355 -364 389 -21 39 5 57 307 212 305 157 340 170
382 140z m-2065 -278 c24 -14 122 -101 218 -195 171 -165 175 -170 165 -198
-9 -25 -43 -46 -245 -151 -200 -104 -242 -122 -282 -122 -53 -1 -31 -18 -294
211 -100 87 -185 165 -188 174 -4 9 0 27 8 39 19 29 423 263 473 273 48 10 91
1 145 -31z m1323 -189 c215 -228 305 -329 305 -341 0 -8 -8 -24 -17 -35 -24
-28 -517 -252 -555 -252 -16 0 -39 5 -51 12 -12 6 -102 88 -199 181 -181 172
-195 192 -165 229 6 9 129 75 272 147 239 120 264 131 305 127 40 -4 51 -11
105 -68z m-807 -308 c7 0 96 -79 198 -176 184 -176 205 -205 172 -232 -22 -17
-451 -213 -480 -219 -15 -3 -41 -1 -57 5 -17 6 -112 81 -211 168 -187 162
-202 182 -162 217 9 8 123 68 252 132 157 78 241 114 255 111 11 -3 26 -6 33
-6z"/>
<path d="M3220 2465 c-107 -63 -199 -116 -205 -118 -5 -2 62 -84 149 -183 88
-98 162 -182 165 -186 3 -3 30 6 59 21 l53 27 -56 64 c-30 35 -55 67 -55 71 0
4 64 42 143 84 78 43 143 78 144 79 1 0 -11 15 -27 33 l-29 32 -147 -81 -148
-81 -43 49 c-23 27 -41 53 -40 58 2 5 65 44 141 87 76 43 143 82 148 87 9 9
-36 73 -50 71 -4 0 -95 -52 -202 -114z"/>
<path d="M1797 1655 l-38 -22 101 -94 c56 -52 96 -95 88 -97 -7 -1 -103 13
-213 32 -189 33 -200 34 -227 18 -16 -9 -27 -19 -26 -23 2 -4 75 -72 162 -152
l159 -146 41 21 40 20 -39 36 c-93 83 -177 164 -173 166 1 2 103 -15 225 -37
192 -35 226 -39 250 -28 l28 13 -165 158 c-91 88 -167 159 -170 159 -3 -1 -22
-11 -43 -24z"/>
<path d="M2851 2987 c-152 -169 -173 -189 -195 -183 -12 3 -40 21 -63 41 -56
47 -81 46 -132 -10 -22 -24 -41 -47 -41 -49 0 -2 22 -20 49 -40 54 -40 68 -73
49 -111 -27 -50 -337 -320 -507 -440 -94 -66 -94 -66 -187 6 -58 45 -80 48
-119 18 l-27 -22 88 -88 c49 -49 95 -89 103 -89 21 0 244 152 386 262 139 108
356 321 467 458 70 88 217 321 200 319 -4 -1 -36 -33 -71 -72z"/>
<path d="M1520 2093 c0 -4 25 -33 56 -64 31 -31 52 -59 47 -62 -4 -2 -57 15
-118 38 -105 41 -111 42 -148 29 -21 -8 -56 -18 -78 -24 l-39 -11 0 -134 0
-134 98 34 c154 52 383 156 381 173 -2 14 -170 162 -184 162 -8 0 -15 -3 -15
-7z"/>
</g>
</svg>
